<svg width="100" height="100" viewBox="0 0 100 100" fill="none" xmlns="http://www.w3.org/2000/svg">
<path d="M89.2266 26.7734L73.2266 10.7734C72.9775 10.5262 72.6819 10.3307 72.357 10.198C72.0321 10.0653 71.6842 9.99802 71.3333 10H18C15.8783 10 13.8434 10.8429 12.3431 12.3432C10.8429 13.8435 10 15.8783 10 18V82C10 84.1217 10.8429 86.1566 12.3431 87.6569C13.8434 89.1571 15.8783 90 18 90H82C84.1217 90 86.1565 89.1571 87.6568 87.6569C89.1571 86.1566 90 84.1217 90 82V28.6667C90.002 28.3157 89.9347 27.9679 89.802 27.643C89.6693 27.3181 89.4738 27.0225 89.2266 26.7734ZM60.6666 15.3334V31.3334H39.3333V15.3334H60.6666ZM28.6667 84.6667V66C28.6667 65.2928 28.9476 64.6145 29.4477 64.1144C29.9478 63.6143 30.6261 63.3333 31.3333 63.3333H68.6666C69.3739 63.3333 70.0522 63.6143 70.5523 64.1144C71.0523 64.6145 71.3333 65.2928 71.3333 66V84.6667H28.6667ZM84.6666 82C84.6666 82.7072 84.3857 83.3855 83.8856 83.8856C83.3855 84.3857 82.7072 84.6667 82 84.6667H76.6666V66C76.6666 63.8783 75.8238 61.8435 74.3235 60.3432C72.8232 58.8429 70.7884 58 68.6666 58H31.3333C29.2116 58 27.1768 58.8429 25.6765 60.3432C24.1762 61.8435 23.3333 63.8783 23.3333 66V84.6667H18C17.2928 84.6667 16.6145 84.3857 16.1144 83.8856C15.6143 83.3855 15.3333 82.7072 15.3333 82V18C15.3333 17.2928 15.6143 16.6145 16.1144 16.1144C16.6145 15.6143 17.2928 15.3334 18 15.3334H34V31.3334C34 32.7479 34.5619 34.1044 35.5621 35.1046C36.5623 36.1048 37.9188 36.6667 39.3333 36.6667H60.6666C62.0811 36.6667 63.4377 36.1048 64.4379 35.1046C65.4381 34.1044 66 32.7479 66 31.3334V15.3334H70.24L84.6666 29.76V82Z" fill="white"/>
</svg>
