<svg width="100" height="100" viewBox="0 0 100 100" fill="none" xmlns="http://www.w3.org/2000/svg">
<path d="M47.4815 64.3207C46.1707 64.3207 44.9094 63.8014 43.9844 62.8714L29.2345 48.1215C27.3004 46.1874 27.3004 43.0614 29.2345 41.1273C31.1685 39.1933 34.2946 39.1933 36.2286 41.1273L47.4815 52.3803L83.5552 16.3066C85.4892 14.3726 88.6153 14.3726 90.5493 16.3066C92.4833 18.2406 92.4833 21.3667 90.5493 23.3007L50.9786 62.8714C50.0487 63.8014 48.7923 64.3207 47.4815 64.3207Z" fill="white"/>
<path d="M47.5707 89.1414C25.7524 89.1414 8 71.389 8 49.5707C8 27.7524 25.7524 10 47.5707 10C53.4717 10 59.1551 11.2712 64.4575 13.7741C66.9258 14.9414 67.9843 17.8894 66.8169 20.3576C65.6496 22.8308 62.7016 23.8943 60.2284 22.722C56.2614 20.8424 52.0026 19.8927 47.5707 19.8927C31.2033 19.8927 17.8927 33.2033 17.8927 49.5707C17.8927 65.9382 31.2033 79.2488 47.5707 79.2488C63.9382 79.2488 77.2488 65.9382 77.2488 49.5707C77.2488 46.8354 79.4647 44.6244 82.1951 44.6244C84.9255 44.6244 87.1414 46.8354 87.1414 49.5707C87.1414 71.389 69.389 89.1414 47.5707 89.1414Z" fill="white"/>
</svg>
