<svg width="100" height="100" viewBox="0 0 100 100" fill="none" xmlns="http://www.w3.org/2000/svg">
<path d="M59.8984 50L82.9492 26.9492C84.2709 25.6276 85 23.8685 85 22C85 20.1315 84.2709 18.3724 82.9492 17.0508C81.6276 15.7291 79.8685 15 78 15C76.1315 15 74.3724 15.7291 73.0508 17.0508L50 40.1016L26.9492 17.0508C25.6276 15.7291 23.8685 15 22 15C20.1315 15 18.3724 15.7291 17.0508 17.0508C15.7291 18.3724 15 20.1315 15 22C15 23.8685 15.7291 25.6276 17.0508 26.9492L40.1016 50L17.0508 73.0508C15.7291 74.3723 15 76.1315 15 78C15 79.8685 15.7291 81.6276 17.0508 82.9492C18.3746 84.2709 20.1315 85 22 85C23.8685 85 25.6254 84.2709 26.9492 82.9492L50 59.8984L73.0508 82.9492C74.3746 84.2709 76.1315 85 78 85C79.8685 85 81.6254 84.2709 82.9492 82.9492C84.2709 81.6277 85 79.8685 85 78C85 76.1315 84.2709 74.3724 82.9492 73.0508L59.8984 50Z" fill="white"/>
</svg>
